<mxfile host="app.diagrams.net" modified="2020-12-04T03:37:30.066Z" agent="5.0 (Macintosh; Intel Mac OS X 10_15_6) AppleWebKit/537.36 (KHTML, like Gecko) Chrome/86.0.4240.198 Safari/537.36" etag="1ikulJJ2704UqtxIdeW6" version="13.10.4" type="github">
  <diagram id="C5RBs43oDa-KdzZeNtuy" name="Page-1">
    <mxGraphModel dx="3784" dy="3625" grid="1" gridSize="10" guides="1" tooltips="1" connect="1" arrows="1" fold="1" page="1" pageScale="1" pageWidth="827" pageHeight="1169" math="0" shadow="0">
      <root>
        <mxCell id="WIyWlLk6GJQsqaUBKTNV-0" />
        <mxCell id="WIyWlLk6GJQsqaUBKTNV-1" parent="WIyWlLk6GJQsqaUBKTNV-0" />
        <mxCell id="oVYYZSYCnaUJ3tYDAJk9-23" style="edgeStyle=orthogonalEdgeStyle;rounded=0;orthogonalLoop=1;jettySize=auto;html=1;" edge="1" parent="WIyWlLk6GJQsqaUBKTNV-1" source="oVYYZSYCnaUJ3tYDAJk9-0" target="oVYYZSYCnaUJ3tYDAJk9-9">
          <mxGeometry relative="1" as="geometry" />
        </mxCell>
        <mxCell id="oVYYZSYCnaUJ3tYDAJk9-0" value="write(n);" style="shape=parallelogram;perimeter=parallelogramPerimeter;whiteSpace=wrap;html=1;fixedSize=1;" vertex="1" parent="WIyWlLk6GJQsqaUBKTNV-1">
          <mxGeometry x="294" y="360" width="120" height="30" as="geometry" />
        </mxCell>
        <mxCell id="oVYYZSYCnaUJ3tYDAJk9-80" style="edgeStyle=orthogonalEdgeStyle;rounded=0;orthogonalLoop=1;jettySize=auto;html=1;fontColor=#CC0066;" edge="1" parent="WIyWlLk6GJQsqaUBKTNV-1" source="oVYYZSYCnaUJ3tYDAJk9-1" target="oVYYZSYCnaUJ3tYDAJk9-79">
          <mxGeometry relative="1" as="geometry" />
        </mxCell>
        <mxCell id="oVYYZSYCnaUJ3tYDAJk9-1" value="n = readInt();" style="shape=parallelogram;perimeter=parallelogramPerimeter;whiteSpace=wrap;html=1;fixedSize=1;" vertex="1" parent="WIyWlLk6GJQsqaUBKTNV-1">
          <mxGeometry x="520" y="30" width="120" height="40" as="geometry" />
        </mxCell>
        <mxCell id="oVYYZSYCnaUJ3tYDAJk9-19" style="edgeStyle=orthogonalEdgeStyle;rounded=0;orthogonalLoop=1;jettySize=auto;html=1;" edge="1" parent="WIyWlLk6GJQsqaUBKTNV-1" source="oVYYZSYCnaUJ3tYDAJk9-2" target="oVYYZSYCnaUJ3tYDAJk9-3">
          <mxGeometry relative="1" as="geometry" />
        </mxCell>
        <mxCell id="oVYYZSYCnaUJ3tYDAJk9-2" value="s = 100;" style="rounded=0;whiteSpace=wrap;html=1;" vertex="1" parent="WIyWlLk6GJQsqaUBKTNV-1">
          <mxGeometry x="535" y="160" width="90" height="30" as="geometry" />
        </mxCell>
        <mxCell id="oVYYZSYCnaUJ3tYDAJk9-20" style="edgeStyle=orthogonalEdgeStyle;rounded=0;orthogonalLoop=1;jettySize=auto;html=1;" edge="1" parent="WIyWlLk6GJQsqaUBKTNV-1" source="oVYYZSYCnaUJ3tYDAJk9-3" target="oVYYZSYCnaUJ3tYDAJk9-5">
          <mxGeometry relative="1" as="geometry" />
        </mxCell>
        <mxCell id="oVYYZSYCnaUJ3tYDAJk9-3" value="q = 0;" style="rounded=0;whiteSpace=wrap;html=1;" vertex="1" parent="WIyWlLk6GJQsqaUBKTNV-1">
          <mxGeometry x="535" y="220" width="90" height="30" as="geometry" />
        </mxCell>
        <mxCell id="oVYYZSYCnaUJ3tYDAJk9-16" style="edgeStyle=orthogonalEdgeStyle;rounded=0;orthogonalLoop=1;jettySize=auto;html=1;" edge="1" parent="WIyWlLk6GJQsqaUBKTNV-1" source="oVYYZSYCnaUJ3tYDAJk9-4" target="oVYYZSYCnaUJ3tYDAJk9-1">
          <mxGeometry relative="1" as="geometry" />
        </mxCell>
        <mxCell id="oVYYZSYCnaUJ3tYDAJk9-4" value="&lt;font style=&quot;font-size: 16px&quot;&gt;Start&lt;/font&gt;" style="rounded=1;whiteSpace=wrap;html=1;fontSize=12;glass=0;strokeWidth=1;shadow=0;" vertex="1" parent="WIyWlLk6GJQsqaUBKTNV-1">
          <mxGeometry x="540" y="-20" width="80" height="20" as="geometry" />
        </mxCell>
        <mxCell id="oVYYZSYCnaUJ3tYDAJk9-21" style="edgeStyle=orthogonalEdgeStyle;rounded=0;orthogonalLoop=1;jettySize=auto;html=1;entryX=0.5;entryY=0;entryDx=0;entryDy=0;" edge="1" parent="WIyWlLk6GJQsqaUBKTNV-1" source="oVYYZSYCnaUJ3tYDAJk9-5" target="oVYYZSYCnaUJ3tYDAJk9-10">
          <mxGeometry relative="1" as="geometry" />
        </mxCell>
        <mxCell id="oVYYZSYCnaUJ3tYDAJk9-22" style="edgeStyle=orthogonalEdgeStyle;rounded=0;orthogonalLoop=1;jettySize=auto;html=1;entryX=0.5;entryY=0;entryDx=0;entryDy=0;" edge="1" parent="WIyWlLk6GJQsqaUBKTNV-1" source="oVYYZSYCnaUJ3tYDAJk9-5" target="oVYYZSYCnaUJ3tYDAJk9-0">
          <mxGeometry relative="1" as="geometry" />
        </mxCell>
        <mxCell id="oVYYZSYCnaUJ3tYDAJk9-5" value="s &amp;gt; 0" style="rhombus;whiteSpace=wrap;html=1;" vertex="1" parent="WIyWlLk6GJQsqaUBKTNV-1">
          <mxGeometry x="502.5" y="280" width="155" height="60" as="geometry" />
        </mxCell>
        <mxCell id="oVYYZSYCnaUJ3tYDAJk9-9" value="&lt;font style=&quot;font-size: 18px&quot;&gt;stop&lt;/font&gt;" style="rounded=1;whiteSpace=wrap;html=1;" vertex="1" parent="WIyWlLk6GJQsqaUBKTNV-1">
          <mxGeometry x="307" y="420" width="94" height="30" as="geometry" />
        </mxCell>
        <mxCell id="oVYYZSYCnaUJ3tYDAJk9-25" style="edgeStyle=orthogonalEdgeStyle;rounded=0;orthogonalLoop=1;jettySize=auto;html=1;entryX=0.583;entryY=0;entryDx=0;entryDy=0;entryPerimeter=0;" edge="1" parent="WIyWlLk6GJQsqaUBKTNV-1" source="oVYYZSYCnaUJ3tYDAJk9-10" target="oVYYZSYCnaUJ3tYDAJk9-11">
          <mxGeometry relative="1" as="geometry" />
        </mxCell>
        <mxCell id="oVYYZSYCnaUJ3tYDAJk9-26" style="edgeStyle=orthogonalEdgeStyle;rounded=0;orthogonalLoop=1;jettySize=auto;html=1;entryX=0.5;entryY=0;entryDx=0;entryDy=0;" edge="1" parent="WIyWlLk6GJQsqaUBKTNV-1" source="oVYYZSYCnaUJ3tYDAJk9-10" target="oVYYZSYCnaUJ3tYDAJk9-14">
          <mxGeometry relative="1" as="geometry" />
        </mxCell>
        <mxCell id="oVYYZSYCnaUJ3tYDAJk9-10" value="n &amp;lt; p * s" style="rhombus;whiteSpace=wrap;html=1;" vertex="1" parent="WIyWlLk6GJQsqaUBKTNV-1">
          <mxGeometry x="680" y="330" width="160" height="60" as="geometry" />
        </mxCell>
        <mxCell id="oVYYZSYCnaUJ3tYDAJk9-28" style="edgeStyle=orthogonalEdgeStyle;rounded=0;orthogonalLoop=1;jettySize=auto;html=1;entryX=0.5;entryY=0;entryDx=0;entryDy=0;" edge="1" parent="WIyWlLk6GJQsqaUBKTNV-1" source="oVYYZSYCnaUJ3tYDAJk9-11" target="oVYYZSYCnaUJ3tYDAJk9-12">
          <mxGeometry relative="1" as="geometry" />
        </mxCell>
        <mxCell id="oVYYZSYCnaUJ3tYDAJk9-11" value="write(q);" style="shape=parallelogram;perimeter=parallelogramPerimeter;whiteSpace=wrap;html=1;fixedSize=1;" vertex="1" parent="WIyWlLk6GJQsqaUBKTNV-1">
          <mxGeometry x="850" y="380" width="120" height="30" as="geometry" />
        </mxCell>
        <mxCell id="oVYYZSYCnaUJ3tYDAJk9-29" style="edgeStyle=orthogonalEdgeStyle;rounded=0;orthogonalLoop=1;jettySize=auto;html=1;" edge="1" parent="WIyWlLk6GJQsqaUBKTNV-1" source="oVYYZSYCnaUJ3tYDAJk9-12" target="oVYYZSYCnaUJ3tYDAJk9-13">
          <mxGeometry relative="1" as="geometry" />
        </mxCell>
        <mxCell id="oVYYZSYCnaUJ3tYDAJk9-12" value="q = 0;" style="rounded=0;whiteSpace=wrap;html=1;" vertex="1" parent="WIyWlLk6GJQsqaUBKTNV-1">
          <mxGeometry x="865" y="450" width="90" height="30" as="geometry" />
        </mxCell>
        <mxCell id="oVYYZSYCnaUJ3tYDAJk9-39" style="edgeStyle=orthogonalEdgeStyle;rounded=0;orthogonalLoop=1;jettySize=auto;html=1;" edge="1" parent="WIyWlLk6GJQsqaUBKTNV-1" source="oVYYZSYCnaUJ3tYDAJk9-13">
          <mxGeometry relative="1" as="geometry">
            <mxPoint x="720" y="560" as="targetPoint" />
            <Array as="points">
              <mxPoint x="910" y="560" />
            </Array>
          </mxGeometry>
        </mxCell>
        <mxCell id="oVYYZSYCnaUJ3tYDAJk9-13" value="s = s / 10;" style="rounded=0;whiteSpace=wrap;html=1;" vertex="1" parent="WIyWlLk6GJQsqaUBKTNV-1">
          <mxGeometry x="865" y="520" width="90" height="30" as="geometry" />
        </mxCell>
        <mxCell id="oVYYZSYCnaUJ3tYDAJk9-27" style="edgeStyle=orthogonalEdgeStyle;rounded=0;orthogonalLoop=1;jettySize=auto;html=1;" edge="1" parent="WIyWlLk6GJQsqaUBKTNV-1" source="oVYYZSYCnaUJ3tYDAJk9-14" target="oVYYZSYCnaUJ3tYDAJk9-15">
          <mxGeometry relative="1" as="geometry" />
        </mxCell>
        <mxCell id="oVYYZSYCnaUJ3tYDAJk9-14" value="n = n - p * s;" style="rounded=0;whiteSpace=wrap;html=1;" vertex="1" parent="WIyWlLk6GJQsqaUBKTNV-1">
          <mxGeometry x="560" y="380" width="90" height="30" as="geometry" />
        </mxCell>
        <mxCell id="oVYYZSYCnaUJ3tYDAJk9-38" style="edgeStyle=orthogonalEdgeStyle;rounded=0;orthogonalLoop=1;jettySize=auto;html=1;" edge="1" parent="WIyWlLk6GJQsqaUBKTNV-1" source="oVYYZSYCnaUJ3tYDAJk9-15">
          <mxGeometry relative="1" as="geometry">
            <mxPoint x="720" y="560" as="targetPoint" />
            <Array as="points">
              <mxPoint x="605" y="560" />
            </Array>
          </mxGeometry>
        </mxCell>
        <mxCell id="oVYYZSYCnaUJ3tYDAJk9-15" value="q = q + 1;" style="rounded=0;whiteSpace=wrap;html=1;" vertex="1" parent="WIyWlLk6GJQsqaUBKTNV-1">
          <mxGeometry x="560" y="450" width="90" height="30" as="geometry" />
        </mxCell>
        <mxCell id="oVYYZSYCnaUJ3tYDAJk9-33" value="&lt;font style=&quot;font-size: 15px&quot;&gt;yes&lt;/font&gt;" style="text;html=1;strokeColor=none;fillColor=none;align=center;verticalAlign=middle;whiteSpace=wrap;rounded=0;fontColor=#CC0066;" vertex="1" parent="WIyWlLk6GJQsqaUBKTNV-1">
          <mxGeometry x="860" y="340" width="40" height="20" as="geometry" />
        </mxCell>
        <mxCell id="oVYYZSYCnaUJ3tYDAJk9-34" value="&lt;font style=&quot;font-size: 15px&quot;&gt;no&lt;/font&gt;" style="text;html=1;strokeColor=none;fillColor=none;align=center;verticalAlign=middle;whiteSpace=wrap;rounded=0;fontColor=#CC0066;" vertex="1" parent="WIyWlLk6GJQsqaUBKTNV-1">
          <mxGeometry x="625" y="340" width="40" height="20" as="geometry" />
        </mxCell>
        <mxCell id="oVYYZSYCnaUJ3tYDAJk9-35" value="&lt;font style=&quot;font-size: 15px&quot;&gt;no&lt;/font&gt;" style="text;html=1;strokeColor=none;fillColor=none;align=center;verticalAlign=middle;whiteSpace=wrap;rounded=0;fontColor=#CC0066;" vertex="1" parent="WIyWlLk6GJQsqaUBKTNV-1">
          <mxGeometry x="440" y="290" width="40" height="20" as="geometry" />
        </mxCell>
        <mxCell id="oVYYZSYCnaUJ3tYDAJk9-36" value="&lt;font style=&quot;font-size: 15px&quot;&gt;yes&lt;/font&gt;" style="text;html=1;strokeColor=none;fillColor=none;align=center;verticalAlign=middle;whiteSpace=wrap;rounded=0;fontColor=#CC0066;" vertex="1" parent="WIyWlLk6GJQsqaUBKTNV-1">
          <mxGeometry x="680" y="290" width="50" height="20" as="geometry" />
        </mxCell>
        <mxCell id="oVYYZSYCnaUJ3tYDAJk9-40" value="" style="endArrow=classic;html=1;" edge="1" parent="WIyWlLk6GJQsqaUBKTNV-1">
          <mxGeometry width="50" height="50" relative="1" as="geometry">
            <mxPoint x="720" y="560" as="sourcePoint" />
            <mxPoint x="580" y="260" as="targetPoint" />
            <Array as="points">
              <mxPoint x="720" y="680" />
              <mxPoint x="1030" y="680" />
              <mxPoint x="1030" y="260" />
            </Array>
          </mxGeometry>
        </mxCell>
        <mxCell id="oVYYZSYCnaUJ3tYDAJk9-41" value="" style="shape=table;html=1;whiteSpace=wrap;startSize=0;container=1;collapsible=0;childLayout=tableLayout;fontColor=#CC0066;" vertex="1" parent="WIyWlLk6GJQsqaUBKTNV-1">
          <mxGeometry x="270" y="760" width="826" height="840" as="geometry" />
        </mxCell>
        <mxCell id="oVYYZSYCnaUJ3tYDAJk9-42" value="" style="shape=partialRectangle;html=1;whiteSpace=wrap;collapsible=0;dropTarget=0;pointerEvents=0;fillColor=none;top=0;left=0;bottom=0;right=0;points=[[0,0.5],[1,0.5]];portConstraint=eastwest;flipH=0;" vertex="1" parent="oVYYZSYCnaUJ3tYDAJk9-41">
          <mxGeometry width="826" height="40" as="geometry" />
        </mxCell>
        <mxCell id="oVYYZSYCnaUJ3tYDAJk9-43" value="Zeilennummer" style="shape=partialRectangle;html=1;whiteSpace=wrap;connectable=0;fillColor=none;top=0;left=0;bottom=0;right=0;overflow=hidden;" vertex="1" parent="oVYYZSYCnaUJ3tYDAJk9-42">
          <mxGeometry width="165" height="40" as="geometry" />
        </mxCell>
        <mxCell id="oVYYZSYCnaUJ3tYDAJk9-44" value="n" style="shape=partialRectangle;html=1;whiteSpace=wrap;connectable=0;fillColor=none;top=0;left=0;bottom=0;right=0;overflow=hidden;" vertex="1" parent="oVYYZSYCnaUJ3tYDAJk9-42">
          <mxGeometry x="165" width="166" height="40" as="geometry" />
        </mxCell>
        <mxCell id="oVYYZSYCnaUJ3tYDAJk9-45" value="p" style="shape=partialRectangle;html=1;whiteSpace=wrap;connectable=0;fillColor=none;top=0;left=0;bottom=0;right=0;overflow=hidden;" vertex="1" parent="oVYYZSYCnaUJ3tYDAJk9-42">
          <mxGeometry x="331" width="165" height="40" as="geometry" />
        </mxCell>
        <mxCell id="oVYYZSYCnaUJ3tYDAJk9-65" value="s" style="shape=partialRectangle;html=1;whiteSpace=wrap;connectable=0;fillColor=none;top=0;left=0;bottom=0;right=0;overflow=hidden;" vertex="1" parent="oVYYZSYCnaUJ3tYDAJk9-42">
          <mxGeometry x="496" width="165" height="40" as="geometry" />
        </mxCell>
        <mxCell id="oVYYZSYCnaUJ3tYDAJk9-73" value="q" style="shape=partialRectangle;html=1;whiteSpace=wrap;connectable=0;fillColor=none;top=0;left=0;bottom=0;right=0;overflow=hidden;" vertex="1" parent="oVYYZSYCnaUJ3tYDAJk9-42">
          <mxGeometry x="661" width="165" height="40" as="geometry" />
        </mxCell>
        <mxCell id="oVYYZSYCnaUJ3tYDAJk9-59" style="shape=partialRectangle;html=1;whiteSpace=wrap;collapsible=0;dropTarget=0;pointerEvents=0;fillColor=none;top=0;left=0;bottom=0;right=0;points=[[0,0.5],[1,0.5]];portConstraint=eastwest;flipH=0;" vertex="1" parent="oVYYZSYCnaUJ3tYDAJk9-41">
          <mxGeometry y="40" width="826" height="40" as="geometry" />
        </mxCell>
        <mxCell id="oVYYZSYCnaUJ3tYDAJk9-60" value="2" style="shape=partialRectangle;html=1;whiteSpace=wrap;connectable=0;fillColor=none;top=0;left=0;bottom=0;right=0;overflow=hidden;" vertex="1" parent="oVYYZSYCnaUJ3tYDAJk9-59">
          <mxGeometry width="165" height="40" as="geometry" />
        </mxCell>
        <mxCell id="oVYYZSYCnaUJ3tYDAJk9-61" value="1425" style="shape=partialRectangle;html=1;whiteSpace=wrap;connectable=0;fillColor=none;top=0;left=0;bottom=0;right=0;overflow=hidden;" vertex="1" parent="oVYYZSYCnaUJ3tYDAJk9-59">
          <mxGeometry x="165" width="166" height="40" as="geometry" />
        </mxCell>
        <mxCell id="oVYYZSYCnaUJ3tYDAJk9-62" value="-" style="shape=partialRectangle;html=1;whiteSpace=wrap;connectable=0;fillColor=none;top=0;left=0;bottom=0;right=0;overflow=hidden;" vertex="1" parent="oVYYZSYCnaUJ3tYDAJk9-59">
          <mxGeometry x="331" width="165" height="40" as="geometry" />
        </mxCell>
        <mxCell id="oVYYZSYCnaUJ3tYDAJk9-63" value="-" style="shape=partialRectangle;html=1;whiteSpace=wrap;connectable=0;fillColor=none;top=0;left=0;bottom=0;right=0;overflow=hidden;" vertex="1" parent="oVYYZSYCnaUJ3tYDAJk9-59">
          <mxGeometry x="496" width="165" height="40" as="geometry" />
        </mxCell>
        <mxCell id="oVYYZSYCnaUJ3tYDAJk9-74" value="-" style="shape=partialRectangle;html=1;whiteSpace=wrap;connectable=0;fillColor=none;top=0;left=0;bottom=0;right=0;overflow=hidden;" vertex="1" parent="oVYYZSYCnaUJ3tYDAJk9-59">
          <mxGeometry x="661" width="165" height="40" as="geometry" />
        </mxCell>
        <mxCell id="oVYYZSYCnaUJ3tYDAJk9-55" style="shape=partialRectangle;html=1;whiteSpace=wrap;collapsible=0;dropTarget=0;pointerEvents=0;fillColor=none;top=0;left=0;bottom=0;right=0;points=[[0,0.5],[1,0.5]];portConstraint=eastwest;flipH=0;" vertex="1" parent="oVYYZSYCnaUJ3tYDAJk9-41">
          <mxGeometry y="80" width="826" height="40" as="geometry" />
        </mxCell>
        <mxCell id="oVYYZSYCnaUJ3tYDAJk9-56" value="3" style="shape=partialRectangle;html=1;whiteSpace=wrap;connectable=0;fillColor=none;top=0;left=0;bottom=0;right=0;overflow=hidden;" vertex="1" parent="oVYYZSYCnaUJ3tYDAJk9-55">
          <mxGeometry width="165" height="40" as="geometry" />
        </mxCell>
        <mxCell id="oVYYZSYCnaUJ3tYDAJk9-57" value="1425" style="shape=partialRectangle;html=1;whiteSpace=wrap;connectable=0;fillColor=none;top=0;left=0;bottom=0;right=0;overflow=hidden;" vertex="1" parent="oVYYZSYCnaUJ3tYDAJk9-55">
          <mxGeometry x="165" width="166" height="40" as="geometry" />
        </mxCell>
        <mxCell id="oVYYZSYCnaUJ3tYDAJk9-58" value="7" style="shape=partialRectangle;html=1;whiteSpace=wrap;connectable=0;fillColor=none;top=0;left=0;bottom=0;right=0;overflow=hidden;" vertex="1" parent="oVYYZSYCnaUJ3tYDAJk9-55">
          <mxGeometry x="331" width="165" height="40" as="geometry" />
        </mxCell>
        <mxCell id="oVYYZSYCnaUJ3tYDAJk9-64" value="-" style="shape=partialRectangle;html=1;whiteSpace=wrap;connectable=0;fillColor=none;top=0;left=0;bottom=0;right=0;overflow=hidden;" vertex="1" parent="oVYYZSYCnaUJ3tYDAJk9-55">
          <mxGeometry x="496" width="165" height="40" as="geometry" />
        </mxCell>
        <mxCell id="oVYYZSYCnaUJ3tYDAJk9-75" value="-" style="shape=partialRectangle;html=1;whiteSpace=wrap;connectable=0;fillColor=none;top=0;left=0;bottom=0;right=0;overflow=hidden;" vertex="1" parent="oVYYZSYCnaUJ3tYDAJk9-55">
          <mxGeometry x="661" width="165" height="40" as="geometry" />
        </mxCell>
        <mxCell id="oVYYZSYCnaUJ3tYDAJk9-68" style="shape=partialRectangle;html=1;whiteSpace=wrap;collapsible=0;dropTarget=0;pointerEvents=0;fillColor=none;top=0;left=0;bottom=0;right=0;points=[[0,0.5],[1,0.5]];portConstraint=eastwest;flipH=0;" vertex="1" parent="oVYYZSYCnaUJ3tYDAJk9-41">
          <mxGeometry y="120" width="826" height="40" as="geometry" />
        </mxCell>
        <mxCell id="oVYYZSYCnaUJ3tYDAJk9-69" value="4" style="shape=partialRectangle;html=1;whiteSpace=wrap;connectable=0;fillColor=none;top=0;left=0;bottom=0;right=0;overflow=hidden;" vertex="1" parent="oVYYZSYCnaUJ3tYDAJk9-68">
          <mxGeometry width="165" height="40" as="geometry" />
        </mxCell>
        <mxCell id="oVYYZSYCnaUJ3tYDAJk9-70" value="1425" style="shape=partialRectangle;html=1;whiteSpace=wrap;connectable=0;fillColor=none;top=0;left=0;bottom=0;right=0;overflow=hidden;" vertex="1" parent="oVYYZSYCnaUJ3tYDAJk9-68">
          <mxGeometry x="165" width="166" height="40" as="geometry" />
        </mxCell>
        <mxCell id="oVYYZSYCnaUJ3tYDAJk9-71" value="7" style="shape=partialRectangle;html=1;whiteSpace=wrap;connectable=0;fillColor=none;top=0;left=0;bottom=0;right=0;overflow=hidden;" vertex="1" parent="oVYYZSYCnaUJ3tYDAJk9-68">
          <mxGeometry x="331" width="165" height="40" as="geometry" />
        </mxCell>
        <mxCell id="oVYYZSYCnaUJ3tYDAJk9-72" value="100" style="shape=partialRectangle;html=1;whiteSpace=wrap;connectable=0;fillColor=none;top=0;left=0;bottom=0;right=0;overflow=hidden;" vertex="1" parent="oVYYZSYCnaUJ3tYDAJk9-68">
          <mxGeometry x="496" width="165" height="40" as="geometry" />
        </mxCell>
        <mxCell id="oVYYZSYCnaUJ3tYDAJk9-76" value="-" style="shape=partialRectangle;html=1;whiteSpace=wrap;connectable=0;fillColor=none;top=0;left=0;bottom=0;right=0;overflow=hidden;" vertex="1" parent="oVYYZSYCnaUJ3tYDAJk9-68">
          <mxGeometry x="661" width="165" height="40" as="geometry" />
        </mxCell>
        <mxCell id="oVYYZSYCnaUJ3tYDAJk9-50" value="" style="shape=partialRectangle;html=1;whiteSpace=wrap;collapsible=0;dropTarget=0;pointerEvents=0;fillColor=none;top=0;left=0;bottom=0;right=0;points=[[0,0.5],[1,0.5]];portConstraint=eastwest;" vertex="1" parent="oVYYZSYCnaUJ3tYDAJk9-41">
          <mxGeometry y="160" width="826" height="40" as="geometry" />
        </mxCell>
        <mxCell id="oVYYZSYCnaUJ3tYDAJk9-51" value="5" style="shape=partialRectangle;html=1;whiteSpace=wrap;connectable=0;fillColor=none;top=0;left=0;bottom=0;right=0;overflow=hidden;" vertex="1" parent="oVYYZSYCnaUJ3tYDAJk9-50">
          <mxGeometry width="165" height="40" as="geometry" />
        </mxCell>
        <mxCell id="oVYYZSYCnaUJ3tYDAJk9-52" value="1425" style="shape=partialRectangle;html=1;whiteSpace=wrap;connectable=0;fillColor=none;top=0;left=0;bottom=0;right=0;overflow=hidden;" vertex="1" parent="oVYYZSYCnaUJ3tYDAJk9-50">
          <mxGeometry x="165" width="166" height="40" as="geometry" />
        </mxCell>
        <mxCell id="oVYYZSYCnaUJ3tYDAJk9-53" value="7" style="shape=partialRectangle;html=1;whiteSpace=wrap;connectable=0;fillColor=none;top=0;left=0;bottom=0;right=0;overflow=hidden;" vertex="1" parent="oVYYZSYCnaUJ3tYDAJk9-50">
          <mxGeometry x="331" width="165" height="40" as="geometry" />
        </mxCell>
        <mxCell id="oVYYZSYCnaUJ3tYDAJk9-66" value="100" style="shape=partialRectangle;html=1;whiteSpace=wrap;connectable=0;fillColor=none;top=0;left=0;bottom=0;right=0;overflow=hidden;" vertex="1" parent="oVYYZSYCnaUJ3tYDAJk9-50">
          <mxGeometry x="496" width="165" height="40" as="geometry" />
        </mxCell>
        <mxCell id="oVYYZSYCnaUJ3tYDAJk9-77" value="0" style="shape=partialRectangle;html=1;whiteSpace=wrap;connectable=0;fillColor=none;top=0;left=0;bottom=0;right=0;overflow=hidden;" vertex="1" parent="oVYYZSYCnaUJ3tYDAJk9-50">
          <mxGeometry x="661" width="165" height="40" as="geometry" />
        </mxCell>
        <mxCell id="oVYYZSYCnaUJ3tYDAJk9-46" value="" style="shape=partialRectangle;html=1;whiteSpace=wrap;collapsible=0;dropTarget=0;pointerEvents=0;fillColor=none;top=0;left=0;bottom=0;right=0;points=[[0,0.5],[1,0.5]];portConstraint=eastwest;" vertex="1" parent="oVYYZSYCnaUJ3tYDAJk9-41">
          <mxGeometry y="200" width="826" height="40" as="geometry" />
        </mxCell>
        <mxCell id="oVYYZSYCnaUJ3tYDAJk9-47" value="13" style="shape=partialRectangle;html=1;whiteSpace=wrap;connectable=0;fillColor=none;top=0;left=0;bottom=0;right=0;overflow=hidden;" vertex="1" parent="oVYYZSYCnaUJ3tYDAJk9-46">
          <mxGeometry width="165" height="40" as="geometry" />
        </mxCell>
        <mxCell id="oVYYZSYCnaUJ3tYDAJk9-48" value="725" style="shape=partialRectangle;html=1;whiteSpace=wrap;connectable=0;fillColor=none;top=0;left=0;bottom=0;right=0;overflow=hidden;" vertex="1" parent="oVYYZSYCnaUJ3tYDAJk9-46">
          <mxGeometry x="165" width="166" height="40" as="geometry" />
        </mxCell>
        <mxCell id="oVYYZSYCnaUJ3tYDAJk9-49" value="7" style="shape=partialRectangle;html=1;whiteSpace=wrap;connectable=0;fillColor=none;top=0;left=0;bottom=0;right=0;overflow=hidden;" vertex="1" parent="oVYYZSYCnaUJ3tYDAJk9-46">
          <mxGeometry x="331" width="165" height="40" as="geometry" />
        </mxCell>
        <mxCell id="oVYYZSYCnaUJ3tYDAJk9-67" value="100" style="shape=partialRectangle;html=1;whiteSpace=wrap;connectable=0;fillColor=none;top=0;left=0;bottom=0;right=0;overflow=hidden;" vertex="1" parent="oVYYZSYCnaUJ3tYDAJk9-46">
          <mxGeometry x="496" width="165" height="40" as="geometry" />
        </mxCell>
        <mxCell id="oVYYZSYCnaUJ3tYDAJk9-78" value="0" style="shape=partialRectangle;html=1;whiteSpace=wrap;connectable=0;fillColor=none;top=0;left=0;bottom=0;right=0;overflow=hidden;" vertex="1" parent="oVYYZSYCnaUJ3tYDAJk9-46">
          <mxGeometry x="661" width="165" height="40" as="geometry" />
        </mxCell>
        <mxCell id="oVYYZSYCnaUJ3tYDAJk9-82" style="shape=partialRectangle;html=1;whiteSpace=wrap;collapsible=0;dropTarget=0;pointerEvents=0;fillColor=none;top=0;left=0;bottom=0;right=0;points=[[0,0.5],[1,0.5]];portConstraint=eastwest;" vertex="1" parent="oVYYZSYCnaUJ3tYDAJk9-41">
          <mxGeometry y="240" width="826" height="40" as="geometry" />
        </mxCell>
        <mxCell id="oVYYZSYCnaUJ3tYDAJk9-83" value="14" style="shape=partialRectangle;html=1;whiteSpace=wrap;connectable=0;fillColor=none;top=0;left=0;bottom=0;right=0;overflow=hidden;" vertex="1" parent="oVYYZSYCnaUJ3tYDAJk9-82">
          <mxGeometry width="165" height="40" as="geometry" />
        </mxCell>
        <mxCell id="oVYYZSYCnaUJ3tYDAJk9-84" value="725" style="shape=partialRectangle;html=1;whiteSpace=wrap;connectable=0;fillColor=none;top=0;left=0;bottom=0;right=0;overflow=hidden;" vertex="1" parent="oVYYZSYCnaUJ3tYDAJk9-82">
          <mxGeometry x="165" width="166" height="40" as="geometry" />
        </mxCell>
        <mxCell id="oVYYZSYCnaUJ3tYDAJk9-85" value="7" style="shape=partialRectangle;html=1;whiteSpace=wrap;connectable=0;fillColor=none;top=0;left=0;bottom=0;right=0;overflow=hidden;" vertex="1" parent="oVYYZSYCnaUJ3tYDAJk9-82">
          <mxGeometry x="331" width="165" height="40" as="geometry" />
        </mxCell>
        <mxCell id="oVYYZSYCnaUJ3tYDAJk9-86" value="100" style="shape=partialRectangle;html=1;whiteSpace=wrap;connectable=0;fillColor=none;top=0;left=0;bottom=0;right=0;overflow=hidden;" vertex="1" parent="oVYYZSYCnaUJ3tYDAJk9-82">
          <mxGeometry x="496" width="165" height="40" as="geometry" />
        </mxCell>
        <mxCell id="oVYYZSYCnaUJ3tYDAJk9-87" value="1" style="shape=partialRectangle;html=1;whiteSpace=wrap;connectable=0;fillColor=none;top=0;left=0;bottom=0;right=0;overflow=hidden;" vertex="1" parent="oVYYZSYCnaUJ3tYDAJk9-82">
          <mxGeometry x="661" width="165" height="40" as="geometry" />
        </mxCell>
        <mxCell id="oVYYZSYCnaUJ3tYDAJk9-88" style="shape=partialRectangle;html=1;whiteSpace=wrap;collapsible=0;dropTarget=0;pointerEvents=0;fillColor=none;top=0;left=0;bottom=0;right=0;points=[[0,0.5],[1,0.5]];portConstraint=eastwest;" vertex="1" parent="oVYYZSYCnaUJ3tYDAJk9-41">
          <mxGeometry y="280" width="826" height="40" as="geometry" />
        </mxCell>
        <mxCell id="oVYYZSYCnaUJ3tYDAJk9-89" value="13" style="shape=partialRectangle;html=1;whiteSpace=wrap;connectable=0;fillColor=none;top=0;left=0;bottom=0;right=0;overflow=hidden;" vertex="1" parent="oVYYZSYCnaUJ3tYDAJk9-88">
          <mxGeometry width="165" height="40" as="geometry" />
        </mxCell>
        <mxCell id="oVYYZSYCnaUJ3tYDAJk9-90" value="25" style="shape=partialRectangle;html=1;whiteSpace=wrap;connectable=0;fillColor=none;top=0;left=0;bottom=0;right=0;overflow=hidden;" vertex="1" parent="oVYYZSYCnaUJ3tYDAJk9-88">
          <mxGeometry x="165" width="166" height="40" as="geometry" />
        </mxCell>
        <mxCell id="oVYYZSYCnaUJ3tYDAJk9-91" value="7" style="shape=partialRectangle;html=1;whiteSpace=wrap;connectable=0;fillColor=none;top=0;left=0;bottom=0;right=0;overflow=hidden;" vertex="1" parent="oVYYZSYCnaUJ3tYDAJk9-88">
          <mxGeometry x="331" width="165" height="40" as="geometry" />
        </mxCell>
        <mxCell id="oVYYZSYCnaUJ3tYDAJk9-92" value="100" style="shape=partialRectangle;html=1;whiteSpace=wrap;connectable=0;fillColor=none;top=0;left=0;bottom=0;right=0;overflow=hidden;" vertex="1" parent="oVYYZSYCnaUJ3tYDAJk9-88">
          <mxGeometry x="496" width="165" height="40" as="geometry" />
        </mxCell>
        <mxCell id="oVYYZSYCnaUJ3tYDAJk9-93" value="1" style="shape=partialRectangle;html=1;whiteSpace=wrap;connectable=0;fillColor=none;top=0;left=0;bottom=0;right=0;overflow=hidden;" vertex="1" parent="oVYYZSYCnaUJ3tYDAJk9-88">
          <mxGeometry x="661" width="165" height="40" as="geometry" />
        </mxCell>
        <mxCell id="oVYYZSYCnaUJ3tYDAJk9-94" style="shape=partialRectangle;html=1;whiteSpace=wrap;collapsible=0;dropTarget=0;pointerEvents=0;fillColor=none;top=0;left=0;bottom=0;right=0;points=[[0,0.5],[1,0.5]];portConstraint=eastwest;" vertex="1" parent="oVYYZSYCnaUJ3tYDAJk9-41">
          <mxGeometry y="320" width="826" height="40" as="geometry" />
        </mxCell>
        <mxCell id="oVYYZSYCnaUJ3tYDAJk9-95" value="14" style="shape=partialRectangle;html=1;whiteSpace=wrap;connectable=0;fillColor=none;top=0;left=0;bottom=0;right=0;overflow=hidden;" vertex="1" parent="oVYYZSYCnaUJ3tYDAJk9-94">
          <mxGeometry width="165" height="40" as="geometry" />
        </mxCell>
        <mxCell id="oVYYZSYCnaUJ3tYDAJk9-96" value="25" style="shape=partialRectangle;html=1;whiteSpace=wrap;connectable=0;fillColor=none;top=0;left=0;bottom=0;right=0;overflow=hidden;" vertex="1" parent="oVYYZSYCnaUJ3tYDAJk9-94">
          <mxGeometry x="165" width="166" height="40" as="geometry" />
        </mxCell>
        <mxCell id="oVYYZSYCnaUJ3tYDAJk9-97" value="7" style="shape=partialRectangle;html=1;whiteSpace=wrap;connectable=0;fillColor=none;top=0;left=0;bottom=0;right=0;overflow=hidden;" vertex="1" parent="oVYYZSYCnaUJ3tYDAJk9-94">
          <mxGeometry x="331" width="165" height="40" as="geometry" />
        </mxCell>
        <mxCell id="oVYYZSYCnaUJ3tYDAJk9-98" value="100" style="shape=partialRectangle;html=1;whiteSpace=wrap;connectable=0;fillColor=none;top=0;left=0;bottom=0;right=0;overflow=hidden;" vertex="1" parent="oVYYZSYCnaUJ3tYDAJk9-94">
          <mxGeometry x="496" width="165" height="40" as="geometry" />
        </mxCell>
        <mxCell id="oVYYZSYCnaUJ3tYDAJk9-99" value="2" style="shape=partialRectangle;html=1;whiteSpace=wrap;connectable=0;fillColor=none;top=0;left=0;bottom=0;right=0;overflow=hidden;" vertex="1" parent="oVYYZSYCnaUJ3tYDAJk9-94">
          <mxGeometry x="661" width="165" height="40" as="geometry" />
        </mxCell>
        <mxCell id="oVYYZSYCnaUJ3tYDAJk9-106" style="shape=partialRectangle;html=1;whiteSpace=wrap;collapsible=0;dropTarget=0;pointerEvents=0;fillColor=none;top=0;left=0;bottom=0;right=0;points=[[0,0.5],[1,0.5]];portConstraint=eastwest;" vertex="1" parent="oVYYZSYCnaUJ3tYDAJk9-41">
          <mxGeometry y="360" width="826" height="40" as="geometry" />
        </mxCell>
        <mxCell id="oVYYZSYCnaUJ3tYDAJk9-107" value="9" style="shape=partialRectangle;html=1;whiteSpace=wrap;connectable=0;fillColor=none;top=0;left=0;bottom=0;right=0;overflow=hidden;" vertex="1" parent="oVYYZSYCnaUJ3tYDAJk9-106">
          <mxGeometry width="165" height="40" as="geometry" />
        </mxCell>
        <mxCell id="oVYYZSYCnaUJ3tYDAJk9-108" value="25" style="shape=partialRectangle;html=1;whiteSpace=wrap;connectable=0;fillColor=none;top=0;left=0;bottom=0;right=0;overflow=hidden;" vertex="1" parent="oVYYZSYCnaUJ3tYDAJk9-106">
          <mxGeometry x="165" width="166" height="40" as="geometry" />
        </mxCell>
        <mxCell id="oVYYZSYCnaUJ3tYDAJk9-109" value="7" style="shape=partialRectangle;html=1;whiteSpace=wrap;connectable=0;fillColor=none;top=0;left=0;bottom=0;right=0;overflow=hidden;" vertex="1" parent="oVYYZSYCnaUJ3tYDAJk9-106">
          <mxGeometry x="331" width="165" height="40" as="geometry" />
        </mxCell>
        <mxCell id="oVYYZSYCnaUJ3tYDAJk9-110" value="100" style="shape=partialRectangle;html=1;whiteSpace=wrap;connectable=0;fillColor=none;top=0;left=0;bottom=0;right=0;overflow=hidden;" vertex="1" parent="oVYYZSYCnaUJ3tYDAJk9-106">
          <mxGeometry x="496" width="165" height="40" as="geometry" />
        </mxCell>
        <mxCell id="oVYYZSYCnaUJ3tYDAJk9-111" value="0" style="shape=partialRectangle;html=1;whiteSpace=wrap;connectable=0;fillColor=none;top=0;left=0;bottom=0;right=0;overflow=hidden;" vertex="1" parent="oVYYZSYCnaUJ3tYDAJk9-106">
          <mxGeometry x="661" width="165" height="40" as="geometry" />
        </mxCell>
        <mxCell id="oVYYZSYCnaUJ3tYDAJk9-112" style="shape=partialRectangle;html=1;whiteSpace=wrap;collapsible=0;dropTarget=0;pointerEvents=0;fillColor=none;top=0;left=0;bottom=0;right=0;points=[[0,0.5],[1,0.5]];portConstraint=eastwest;" vertex="1" parent="oVYYZSYCnaUJ3tYDAJk9-41">
          <mxGeometry y="400" width="826" height="40" as="geometry" />
        </mxCell>
        <mxCell id="oVYYZSYCnaUJ3tYDAJk9-113" value="10" style="shape=partialRectangle;html=1;whiteSpace=wrap;connectable=0;fillColor=none;top=0;left=0;bottom=0;right=0;overflow=hidden;" vertex="1" parent="oVYYZSYCnaUJ3tYDAJk9-112">
          <mxGeometry width="165" height="40" as="geometry" />
        </mxCell>
        <mxCell id="oVYYZSYCnaUJ3tYDAJk9-114" value="25" style="shape=partialRectangle;html=1;whiteSpace=wrap;connectable=0;fillColor=none;top=0;left=0;bottom=0;right=0;overflow=hidden;" vertex="1" parent="oVYYZSYCnaUJ3tYDAJk9-112">
          <mxGeometry x="165" width="166" height="40" as="geometry" />
        </mxCell>
        <mxCell id="oVYYZSYCnaUJ3tYDAJk9-115" value="7" style="shape=partialRectangle;html=1;whiteSpace=wrap;connectable=0;fillColor=none;top=0;left=0;bottom=0;right=0;overflow=hidden;" vertex="1" parent="oVYYZSYCnaUJ3tYDAJk9-112">
          <mxGeometry x="331" width="165" height="40" as="geometry" />
        </mxCell>
        <mxCell id="oVYYZSYCnaUJ3tYDAJk9-116" value="10" style="shape=partialRectangle;html=1;whiteSpace=wrap;connectable=0;fillColor=none;top=0;left=0;bottom=0;right=0;overflow=hidden;" vertex="1" parent="oVYYZSYCnaUJ3tYDAJk9-112">
          <mxGeometry x="496" width="165" height="40" as="geometry" />
        </mxCell>
        <mxCell id="oVYYZSYCnaUJ3tYDAJk9-117" value="0" style="shape=partialRectangle;html=1;whiteSpace=wrap;connectable=0;fillColor=none;top=0;left=0;bottom=0;right=0;overflow=hidden;" vertex="1" parent="oVYYZSYCnaUJ3tYDAJk9-112">
          <mxGeometry x="661" width="165" height="40" as="geometry" />
        </mxCell>
        <mxCell id="oVYYZSYCnaUJ3tYDAJk9-118" style="shape=partialRectangle;html=1;whiteSpace=wrap;collapsible=0;dropTarget=0;pointerEvents=0;fillColor=none;top=0;left=0;bottom=0;right=0;points=[[0,0.5],[1,0.5]];portConstraint=eastwest;" vertex="1" parent="oVYYZSYCnaUJ3tYDAJk9-41">
          <mxGeometry y="440" width="826" height="40" as="geometry" />
        </mxCell>
        <mxCell id="oVYYZSYCnaUJ3tYDAJk9-119" value="9" style="shape=partialRectangle;html=1;whiteSpace=wrap;connectable=0;fillColor=none;top=0;left=0;bottom=0;right=0;overflow=hidden;" vertex="1" parent="oVYYZSYCnaUJ3tYDAJk9-118">
          <mxGeometry width="165" height="40" as="geometry" />
        </mxCell>
        <mxCell id="oVYYZSYCnaUJ3tYDAJk9-120" value="25" style="shape=partialRectangle;html=1;whiteSpace=wrap;connectable=0;fillColor=none;top=0;left=0;bottom=0;right=0;overflow=hidden;" vertex="1" parent="oVYYZSYCnaUJ3tYDAJk9-118">
          <mxGeometry x="165" width="166" height="40" as="geometry" />
        </mxCell>
        <mxCell id="oVYYZSYCnaUJ3tYDAJk9-121" value="7" style="shape=partialRectangle;html=1;whiteSpace=wrap;connectable=0;fillColor=none;top=0;left=0;bottom=0;right=0;overflow=hidden;" vertex="1" parent="oVYYZSYCnaUJ3tYDAJk9-118">
          <mxGeometry x="331" width="165" height="40" as="geometry" />
        </mxCell>
        <mxCell id="oVYYZSYCnaUJ3tYDAJk9-122" value="10" style="shape=partialRectangle;html=1;whiteSpace=wrap;connectable=0;fillColor=none;top=0;left=0;bottom=0;right=0;overflow=hidden;" vertex="1" parent="oVYYZSYCnaUJ3tYDAJk9-118">
          <mxGeometry x="496" width="165" height="40" as="geometry" />
        </mxCell>
        <mxCell id="oVYYZSYCnaUJ3tYDAJk9-123" value="0" style="shape=partialRectangle;html=1;whiteSpace=wrap;connectable=0;fillColor=none;top=0;left=0;bottom=0;right=0;overflow=hidden;" vertex="1" parent="oVYYZSYCnaUJ3tYDAJk9-118">
          <mxGeometry x="661" width="165" height="40" as="geometry" />
        </mxCell>
        <mxCell id="oVYYZSYCnaUJ3tYDAJk9-124" style="shape=partialRectangle;html=1;whiteSpace=wrap;collapsible=0;dropTarget=0;pointerEvents=0;fillColor=none;top=0;left=0;bottom=0;right=0;points=[[0,0.5],[1,0.5]];portConstraint=eastwest;" vertex="1" parent="oVYYZSYCnaUJ3tYDAJk9-41">
          <mxGeometry y="480" width="826" height="40" as="geometry" />
        </mxCell>
        <mxCell id="oVYYZSYCnaUJ3tYDAJk9-125" value="10" style="shape=partialRectangle;html=1;whiteSpace=wrap;connectable=0;fillColor=none;top=0;left=0;bottom=0;right=0;overflow=hidden;" vertex="1" parent="oVYYZSYCnaUJ3tYDAJk9-124">
          <mxGeometry width="165" height="40" as="geometry" />
        </mxCell>
        <mxCell id="oVYYZSYCnaUJ3tYDAJk9-126" value="25" style="shape=partialRectangle;html=1;whiteSpace=wrap;connectable=0;fillColor=none;top=0;left=0;bottom=0;right=0;overflow=hidden;" vertex="1" parent="oVYYZSYCnaUJ3tYDAJk9-124">
          <mxGeometry x="165" width="166" height="40" as="geometry" />
        </mxCell>
        <mxCell id="oVYYZSYCnaUJ3tYDAJk9-127" value="7" style="shape=partialRectangle;html=1;whiteSpace=wrap;connectable=0;fillColor=none;top=0;left=0;bottom=0;right=0;overflow=hidden;" vertex="1" parent="oVYYZSYCnaUJ3tYDAJk9-124">
          <mxGeometry x="331" width="165" height="40" as="geometry" />
        </mxCell>
        <mxCell id="oVYYZSYCnaUJ3tYDAJk9-128" value="1" style="shape=partialRectangle;html=1;whiteSpace=wrap;connectable=0;fillColor=none;top=0;left=0;bottom=0;right=0;overflow=hidden;" vertex="1" parent="oVYYZSYCnaUJ3tYDAJk9-124">
          <mxGeometry x="496" width="165" height="40" as="geometry" />
        </mxCell>
        <mxCell id="oVYYZSYCnaUJ3tYDAJk9-129" value="0" style="shape=partialRectangle;html=1;whiteSpace=wrap;connectable=0;fillColor=none;top=0;left=0;bottom=0;right=0;overflow=hidden;" vertex="1" parent="oVYYZSYCnaUJ3tYDAJk9-124">
          <mxGeometry x="661" width="165" height="40" as="geometry" />
        </mxCell>
        <mxCell id="oVYYZSYCnaUJ3tYDAJk9-130" style="shape=partialRectangle;html=1;whiteSpace=wrap;collapsible=0;dropTarget=0;pointerEvents=0;fillColor=none;top=0;left=0;bottom=0;right=0;points=[[0,0.5],[1,0.5]];portConstraint=eastwest;" vertex="1" parent="oVYYZSYCnaUJ3tYDAJk9-41">
          <mxGeometry y="520" width="826" height="40" as="geometry" />
        </mxCell>
        <mxCell id="oVYYZSYCnaUJ3tYDAJk9-131" value="13" style="shape=partialRectangle;html=1;whiteSpace=wrap;connectable=0;fillColor=none;top=0;left=0;bottom=0;right=0;overflow=hidden;" vertex="1" parent="oVYYZSYCnaUJ3tYDAJk9-130">
          <mxGeometry width="165" height="40" as="geometry" />
        </mxCell>
        <mxCell id="oVYYZSYCnaUJ3tYDAJk9-132" value="18" style="shape=partialRectangle;html=1;whiteSpace=wrap;connectable=0;fillColor=none;top=0;left=0;bottom=0;right=0;overflow=hidden;" vertex="1" parent="oVYYZSYCnaUJ3tYDAJk9-130">
          <mxGeometry x="165" width="166" height="40" as="geometry" />
        </mxCell>
        <mxCell id="oVYYZSYCnaUJ3tYDAJk9-133" value="7" style="shape=partialRectangle;html=1;whiteSpace=wrap;connectable=0;fillColor=none;top=0;left=0;bottom=0;right=0;overflow=hidden;" vertex="1" parent="oVYYZSYCnaUJ3tYDAJk9-130">
          <mxGeometry x="331" width="165" height="40" as="geometry" />
        </mxCell>
        <mxCell id="oVYYZSYCnaUJ3tYDAJk9-134" value="1" style="shape=partialRectangle;html=1;whiteSpace=wrap;connectable=0;fillColor=none;top=0;left=0;bottom=0;right=0;overflow=hidden;" vertex="1" parent="oVYYZSYCnaUJ3tYDAJk9-130">
          <mxGeometry x="496" width="165" height="40" as="geometry" />
        </mxCell>
        <mxCell id="oVYYZSYCnaUJ3tYDAJk9-135" value="0" style="shape=partialRectangle;html=1;whiteSpace=wrap;connectable=0;fillColor=none;top=0;left=0;bottom=0;right=0;overflow=hidden;" vertex="1" parent="oVYYZSYCnaUJ3tYDAJk9-130">
          <mxGeometry x="661" width="165" height="40" as="geometry" />
        </mxCell>
        <mxCell id="oVYYZSYCnaUJ3tYDAJk9-136" style="shape=partialRectangle;html=1;whiteSpace=wrap;collapsible=0;dropTarget=0;pointerEvents=0;fillColor=none;top=0;left=0;bottom=0;right=0;points=[[0,0.5],[1,0.5]];portConstraint=eastwest;" vertex="1" parent="oVYYZSYCnaUJ3tYDAJk9-41">
          <mxGeometry y="560" width="826" height="40" as="geometry" />
        </mxCell>
        <mxCell id="oVYYZSYCnaUJ3tYDAJk9-137" value="14" style="shape=partialRectangle;html=1;whiteSpace=wrap;connectable=0;fillColor=none;top=0;left=0;bottom=0;right=0;overflow=hidden;" vertex="1" parent="oVYYZSYCnaUJ3tYDAJk9-136">
          <mxGeometry width="165" height="40" as="geometry" />
        </mxCell>
        <mxCell id="oVYYZSYCnaUJ3tYDAJk9-138" value="18" style="shape=partialRectangle;html=1;whiteSpace=wrap;connectable=0;fillColor=none;top=0;left=0;bottom=0;right=0;overflow=hidden;" vertex="1" parent="oVYYZSYCnaUJ3tYDAJk9-136">
          <mxGeometry x="165" width="166" height="40" as="geometry" />
        </mxCell>
        <mxCell id="oVYYZSYCnaUJ3tYDAJk9-139" value="7" style="shape=partialRectangle;html=1;whiteSpace=wrap;connectable=0;fillColor=none;top=0;left=0;bottom=0;right=0;overflow=hidden;" vertex="1" parent="oVYYZSYCnaUJ3tYDAJk9-136">
          <mxGeometry x="331" width="165" height="40" as="geometry" />
        </mxCell>
        <mxCell id="oVYYZSYCnaUJ3tYDAJk9-140" value="1" style="shape=partialRectangle;html=1;whiteSpace=wrap;connectable=0;fillColor=none;top=0;left=0;bottom=0;right=0;overflow=hidden;" vertex="1" parent="oVYYZSYCnaUJ3tYDAJk9-136">
          <mxGeometry x="496" width="165" height="40" as="geometry" />
        </mxCell>
        <mxCell id="oVYYZSYCnaUJ3tYDAJk9-141" value="1" style="shape=partialRectangle;html=1;whiteSpace=wrap;connectable=0;fillColor=none;top=0;left=0;bottom=0;right=0;overflow=hidden;" vertex="1" parent="oVYYZSYCnaUJ3tYDAJk9-136">
          <mxGeometry x="661" width="165" height="40" as="geometry" />
        </mxCell>
        <mxCell id="oVYYZSYCnaUJ3tYDAJk9-142" style="shape=partialRectangle;html=1;whiteSpace=wrap;collapsible=0;dropTarget=0;pointerEvents=0;fillColor=none;top=0;left=0;bottom=0;right=0;points=[[0,0.5],[1,0.5]];portConstraint=eastwest;" vertex="1" parent="oVYYZSYCnaUJ3tYDAJk9-41">
          <mxGeometry y="600" width="826" height="40" as="geometry" />
        </mxCell>
        <mxCell id="oVYYZSYCnaUJ3tYDAJk9-143" value="13" style="shape=partialRectangle;html=1;whiteSpace=wrap;connectable=0;fillColor=none;top=0;left=0;bottom=0;right=0;overflow=hidden;" vertex="1" parent="oVYYZSYCnaUJ3tYDAJk9-142">
          <mxGeometry width="165" height="40" as="geometry" />
        </mxCell>
        <mxCell id="oVYYZSYCnaUJ3tYDAJk9-144" value="11" style="shape=partialRectangle;html=1;whiteSpace=wrap;connectable=0;fillColor=none;top=0;left=0;bottom=0;right=0;overflow=hidden;" vertex="1" parent="oVYYZSYCnaUJ3tYDAJk9-142">
          <mxGeometry x="165" width="166" height="40" as="geometry" />
        </mxCell>
        <mxCell id="oVYYZSYCnaUJ3tYDAJk9-145" value="7" style="shape=partialRectangle;html=1;whiteSpace=wrap;connectable=0;fillColor=none;top=0;left=0;bottom=0;right=0;overflow=hidden;" vertex="1" parent="oVYYZSYCnaUJ3tYDAJk9-142">
          <mxGeometry x="331" width="165" height="40" as="geometry" />
        </mxCell>
        <mxCell id="oVYYZSYCnaUJ3tYDAJk9-146" value="1" style="shape=partialRectangle;html=1;whiteSpace=wrap;connectable=0;fillColor=none;top=0;left=0;bottom=0;right=0;overflow=hidden;" vertex="1" parent="oVYYZSYCnaUJ3tYDAJk9-142">
          <mxGeometry x="496" width="165" height="40" as="geometry" />
        </mxCell>
        <mxCell id="oVYYZSYCnaUJ3tYDAJk9-147" value="1" style="shape=partialRectangle;html=1;whiteSpace=wrap;connectable=0;fillColor=none;top=0;left=0;bottom=0;right=0;overflow=hidden;" vertex="1" parent="oVYYZSYCnaUJ3tYDAJk9-142">
          <mxGeometry x="661" width="165" height="40" as="geometry" />
        </mxCell>
        <mxCell id="oVYYZSYCnaUJ3tYDAJk9-148" style="shape=partialRectangle;html=1;whiteSpace=wrap;collapsible=0;dropTarget=0;pointerEvents=0;fillColor=none;top=0;left=0;bottom=0;right=0;points=[[0,0.5],[1,0.5]];portConstraint=eastwest;" vertex="1" parent="oVYYZSYCnaUJ3tYDAJk9-41">
          <mxGeometry y="640" width="826" height="40" as="geometry" />
        </mxCell>
        <mxCell id="oVYYZSYCnaUJ3tYDAJk9-149" value="14" style="shape=partialRectangle;html=1;whiteSpace=wrap;connectable=0;fillColor=none;top=0;left=0;bottom=0;right=0;overflow=hidden;" vertex="1" parent="oVYYZSYCnaUJ3tYDAJk9-148">
          <mxGeometry width="165" height="40" as="geometry" />
        </mxCell>
        <mxCell id="oVYYZSYCnaUJ3tYDAJk9-150" value="11" style="shape=partialRectangle;html=1;whiteSpace=wrap;connectable=0;fillColor=none;top=0;left=0;bottom=0;right=0;overflow=hidden;" vertex="1" parent="oVYYZSYCnaUJ3tYDAJk9-148">
          <mxGeometry x="165" width="166" height="40" as="geometry" />
        </mxCell>
        <mxCell id="oVYYZSYCnaUJ3tYDAJk9-151" value="7" style="shape=partialRectangle;html=1;whiteSpace=wrap;connectable=0;fillColor=none;top=0;left=0;bottom=0;right=0;overflow=hidden;" vertex="1" parent="oVYYZSYCnaUJ3tYDAJk9-148">
          <mxGeometry x="331" width="165" height="40" as="geometry" />
        </mxCell>
        <mxCell id="oVYYZSYCnaUJ3tYDAJk9-152" value="1" style="shape=partialRectangle;html=1;whiteSpace=wrap;connectable=0;fillColor=none;top=0;left=0;bottom=0;right=0;overflow=hidden;" vertex="1" parent="oVYYZSYCnaUJ3tYDAJk9-148">
          <mxGeometry x="496" width="165" height="40" as="geometry" />
        </mxCell>
        <mxCell id="oVYYZSYCnaUJ3tYDAJk9-153" value="2" style="shape=partialRectangle;html=1;whiteSpace=wrap;connectable=0;fillColor=none;top=0;left=0;bottom=0;right=0;overflow=hidden;" vertex="1" parent="oVYYZSYCnaUJ3tYDAJk9-148">
          <mxGeometry x="661" width="165" height="40" as="geometry" />
        </mxCell>
        <mxCell id="oVYYZSYCnaUJ3tYDAJk9-154" style="shape=partialRectangle;html=1;whiteSpace=wrap;collapsible=0;dropTarget=0;pointerEvents=0;fillColor=none;top=0;left=0;bottom=0;right=0;points=[[0,0.5],[1,0.5]];portConstraint=eastwest;" vertex="1" parent="oVYYZSYCnaUJ3tYDAJk9-41">
          <mxGeometry y="680" width="826" height="40" as="geometry" />
        </mxCell>
        <mxCell id="oVYYZSYCnaUJ3tYDAJk9-155" value="13" style="shape=partialRectangle;html=1;whiteSpace=wrap;connectable=0;fillColor=none;top=0;left=0;bottom=0;right=0;overflow=hidden;" vertex="1" parent="oVYYZSYCnaUJ3tYDAJk9-154">
          <mxGeometry width="165" height="40" as="geometry" />
        </mxCell>
        <mxCell id="oVYYZSYCnaUJ3tYDAJk9-156" value="4" style="shape=partialRectangle;html=1;whiteSpace=wrap;connectable=0;fillColor=none;top=0;left=0;bottom=0;right=0;overflow=hidden;" vertex="1" parent="oVYYZSYCnaUJ3tYDAJk9-154">
          <mxGeometry x="165" width="166" height="40" as="geometry" />
        </mxCell>
        <mxCell id="oVYYZSYCnaUJ3tYDAJk9-157" value="7" style="shape=partialRectangle;html=1;whiteSpace=wrap;connectable=0;fillColor=none;top=0;left=0;bottom=0;right=0;overflow=hidden;" vertex="1" parent="oVYYZSYCnaUJ3tYDAJk9-154">
          <mxGeometry x="331" width="165" height="40" as="geometry" />
        </mxCell>
        <mxCell id="oVYYZSYCnaUJ3tYDAJk9-158" value="1" style="shape=partialRectangle;html=1;whiteSpace=wrap;connectable=0;fillColor=none;top=0;left=0;bottom=0;right=0;overflow=hidden;" vertex="1" parent="oVYYZSYCnaUJ3tYDAJk9-154">
          <mxGeometry x="496" width="165" height="40" as="geometry" />
        </mxCell>
        <mxCell id="oVYYZSYCnaUJ3tYDAJk9-159" value="2" style="shape=partialRectangle;html=1;whiteSpace=wrap;connectable=0;fillColor=none;top=0;left=0;bottom=0;right=0;overflow=hidden;" vertex="1" parent="oVYYZSYCnaUJ3tYDAJk9-154">
          <mxGeometry x="661" width="165" height="40" as="geometry" />
        </mxCell>
        <mxCell id="oVYYZSYCnaUJ3tYDAJk9-160" style="shape=partialRectangle;html=1;whiteSpace=wrap;collapsible=0;dropTarget=0;pointerEvents=0;fillColor=none;top=0;left=0;bottom=0;right=0;points=[[0,0.5],[1,0.5]];portConstraint=eastwest;" vertex="1" parent="oVYYZSYCnaUJ3tYDAJk9-41">
          <mxGeometry y="720" width="826" height="40" as="geometry" />
        </mxCell>
        <mxCell id="oVYYZSYCnaUJ3tYDAJk9-161" value="14" style="shape=partialRectangle;html=1;whiteSpace=wrap;connectable=0;fillColor=none;top=0;left=0;bottom=0;right=0;overflow=hidden;" vertex="1" parent="oVYYZSYCnaUJ3tYDAJk9-160">
          <mxGeometry width="165" height="40" as="geometry" />
        </mxCell>
        <mxCell id="oVYYZSYCnaUJ3tYDAJk9-162" value="4" style="shape=partialRectangle;html=1;whiteSpace=wrap;connectable=0;fillColor=none;top=0;left=0;bottom=0;right=0;overflow=hidden;" vertex="1" parent="oVYYZSYCnaUJ3tYDAJk9-160">
          <mxGeometry x="165" width="166" height="40" as="geometry" />
        </mxCell>
        <mxCell id="oVYYZSYCnaUJ3tYDAJk9-163" value="7" style="shape=partialRectangle;html=1;whiteSpace=wrap;connectable=0;fillColor=none;top=0;left=0;bottom=0;right=0;overflow=hidden;" vertex="1" parent="oVYYZSYCnaUJ3tYDAJk9-160">
          <mxGeometry x="331" width="165" height="40" as="geometry" />
        </mxCell>
        <mxCell id="oVYYZSYCnaUJ3tYDAJk9-164" value="1" style="shape=partialRectangle;html=1;whiteSpace=wrap;connectable=0;fillColor=none;top=0;left=0;bottom=0;right=0;overflow=hidden;" vertex="1" parent="oVYYZSYCnaUJ3tYDAJk9-160">
          <mxGeometry x="496" width="165" height="40" as="geometry" />
        </mxCell>
        <mxCell id="oVYYZSYCnaUJ3tYDAJk9-165" value="3" style="shape=partialRectangle;html=1;whiteSpace=wrap;connectable=0;fillColor=none;top=0;left=0;bottom=0;right=0;overflow=hidden;" vertex="1" parent="oVYYZSYCnaUJ3tYDAJk9-160">
          <mxGeometry x="661" width="165" height="40" as="geometry" />
        </mxCell>
        <mxCell id="oVYYZSYCnaUJ3tYDAJk9-166" style="shape=partialRectangle;html=1;whiteSpace=wrap;collapsible=0;dropTarget=0;pointerEvents=0;fillColor=none;top=0;left=0;bottom=0;right=0;points=[[0,0.5],[1,0.5]];portConstraint=eastwest;" vertex="1" parent="oVYYZSYCnaUJ3tYDAJk9-41">
          <mxGeometry y="760" width="826" height="40" as="geometry" />
        </mxCell>
        <mxCell id="oVYYZSYCnaUJ3tYDAJk9-167" value="9" style="shape=partialRectangle;html=1;whiteSpace=wrap;connectable=0;fillColor=none;top=0;left=0;bottom=0;right=0;overflow=hidden;" vertex="1" parent="oVYYZSYCnaUJ3tYDAJk9-166">
          <mxGeometry width="165" height="40" as="geometry" />
        </mxCell>
        <mxCell id="oVYYZSYCnaUJ3tYDAJk9-168" value="4" style="shape=partialRectangle;html=1;whiteSpace=wrap;connectable=0;fillColor=none;top=0;left=0;bottom=0;right=0;overflow=hidden;" vertex="1" parent="oVYYZSYCnaUJ3tYDAJk9-166">
          <mxGeometry x="165" width="166" height="40" as="geometry" />
        </mxCell>
        <mxCell id="oVYYZSYCnaUJ3tYDAJk9-169" value="7" style="shape=partialRectangle;html=1;whiteSpace=wrap;connectable=0;fillColor=none;top=0;left=0;bottom=0;right=0;overflow=hidden;" vertex="1" parent="oVYYZSYCnaUJ3tYDAJk9-166">
          <mxGeometry x="331" width="165" height="40" as="geometry" />
        </mxCell>
        <mxCell id="oVYYZSYCnaUJ3tYDAJk9-170" value="1" style="shape=partialRectangle;html=1;whiteSpace=wrap;connectable=0;fillColor=none;top=0;left=0;bottom=0;right=0;overflow=hidden;" vertex="1" parent="oVYYZSYCnaUJ3tYDAJk9-166">
          <mxGeometry x="496" width="165" height="40" as="geometry" />
        </mxCell>
        <mxCell id="oVYYZSYCnaUJ3tYDAJk9-171" value="0" style="shape=partialRectangle;html=1;whiteSpace=wrap;connectable=0;fillColor=none;top=0;left=0;bottom=0;right=0;overflow=hidden;" vertex="1" parent="oVYYZSYCnaUJ3tYDAJk9-166">
          <mxGeometry x="661" width="165" height="40" as="geometry" />
        </mxCell>
        <mxCell id="oVYYZSYCnaUJ3tYDAJk9-172" style="shape=partialRectangle;html=1;whiteSpace=wrap;collapsible=0;dropTarget=0;pointerEvents=0;fillColor=none;top=0;left=0;bottom=0;right=0;points=[[0,0.5],[1,0.5]];portConstraint=eastwest;" vertex="1" parent="oVYYZSYCnaUJ3tYDAJk9-41">
          <mxGeometry y="800" width="826" height="40" as="geometry" />
        </mxCell>
        <mxCell id="oVYYZSYCnaUJ3tYDAJk9-173" value="10" style="shape=partialRectangle;html=1;whiteSpace=wrap;connectable=0;fillColor=none;top=0;left=0;bottom=0;right=0;overflow=hidden;" vertex="1" parent="oVYYZSYCnaUJ3tYDAJk9-172">
          <mxGeometry width="165" height="40" as="geometry" />
        </mxCell>
        <mxCell id="oVYYZSYCnaUJ3tYDAJk9-174" value="4" style="shape=partialRectangle;html=1;whiteSpace=wrap;connectable=0;fillColor=none;top=0;left=0;bottom=0;right=0;overflow=hidden;" vertex="1" parent="oVYYZSYCnaUJ3tYDAJk9-172">
          <mxGeometry x="165" width="166" height="40" as="geometry" />
        </mxCell>
        <mxCell id="oVYYZSYCnaUJ3tYDAJk9-175" value="7" style="shape=partialRectangle;html=1;whiteSpace=wrap;connectable=0;fillColor=none;top=0;left=0;bottom=0;right=0;overflow=hidden;" vertex="1" parent="oVYYZSYCnaUJ3tYDAJk9-172">
          <mxGeometry x="331" width="165" height="40" as="geometry" />
        </mxCell>
        <mxCell id="oVYYZSYCnaUJ3tYDAJk9-176" value="0" style="shape=partialRectangle;html=1;whiteSpace=wrap;connectable=0;fillColor=none;top=0;left=0;bottom=0;right=0;overflow=hidden;" vertex="1" parent="oVYYZSYCnaUJ3tYDAJk9-172">
          <mxGeometry x="496" width="165" height="40" as="geometry" />
        </mxCell>
        <mxCell id="oVYYZSYCnaUJ3tYDAJk9-177" value="0" style="shape=partialRectangle;html=1;whiteSpace=wrap;connectable=0;fillColor=none;top=0;left=0;bottom=0;right=0;overflow=hidden;" vertex="1" parent="oVYYZSYCnaUJ3tYDAJk9-172">
          <mxGeometry x="661" width="165" height="40" as="geometry" />
        </mxCell>
        <mxCell id="oVYYZSYCnaUJ3tYDAJk9-81" style="edgeStyle=orthogonalEdgeStyle;rounded=0;orthogonalLoop=1;jettySize=auto;html=1;fontColor=#CC0066;" edge="1" parent="WIyWlLk6GJQsqaUBKTNV-1" source="oVYYZSYCnaUJ3tYDAJk9-79" target="oVYYZSYCnaUJ3tYDAJk9-2">
          <mxGeometry relative="1" as="geometry" />
        </mxCell>
        <mxCell id="oVYYZSYCnaUJ3tYDAJk9-79" value="p = readInt();" style="shape=parallelogram;perimeter=parallelogramPerimeter;whiteSpace=wrap;html=1;fixedSize=1;" vertex="1" parent="WIyWlLk6GJQsqaUBKTNV-1">
          <mxGeometry x="520" y="90" width="120" height="40" as="geometry" />
        </mxCell>
      </root>
    </mxGraphModel>
  </diagram>
</mxfile>
